<svg width="507.98mm" height="40.191mm" version="1.1" viewBox="0 0 507.98 40.191" xmlns="http://www.w3.org/2000/svg">
 <g transform="translate(-222 -102.74)">
  <path d="m-146.84-4.3604h338.67v190.5h-338.67z" fill="#fff"/>
 </g>
 <g transform="translate(-368.85 -107.1)">
  <path d="m368.85 128.19s64.613 31.841 231.03 13.285 276.95-1.519 276.95-1.519l-0.28496-31.513h-507.66z" fill="#ffd5d5"/>
  <path d="m368.88 124.77s93.259 24.037 206.91 12.316c113.65-11.721 301.04 2.8753 301.04 2.8753l-0.28496-31.513h-507.66z" fill="#faa"/>
  <path d="m368.85 133.15s56.896 15.437 228.5-2.1104c118.53-12.121 279.48 13.876 279.48 13.876l-0.28497-37.815h-507.66z" fill="#f55"/>
  <path d="m368.85 133.15s56.896 15.437 228.5-2.1104c118.53-12.121 279.48 13.876 279.48 13.876l-0.28497-37.815h-507.66z" fill="#f55"/>
 </g>
</svg>
